<svg width="180" height="60" viewBox="0 0 180 60" fill="none" xmlns="http://www.w3.org/2000/svg">
<g clip-path="url(#clip0_3671_13362)">
<path d="M165.202 0.000195H14.302C13.752 0.000195 13.2085 0.000195 12.6599 0.003195C12.2007 0.006195 11.7451 0.01491 11.2815 0.022245C10.2743 0.0340977 9.26941 0.122709 8.27565 0.28731C7.28329 0.455494 6.32201 0.772569 5.42433 1.22781C4.52775 1.6869 3.70852 2.28345 2.99635 2.9958C2.28045 3.70615 1.68369 4.52722 1.22902 5.42743C0.7731 6.32586 0.456961 7.2886 0.291525 8.28242C0.124516 9.27497 0.0346476 10.279 0.022725 11.2854C0.008805 11.7453 0.007335 12.2067 0 12.6667V47.3381C0.007335 47.8038 0.008805 48.255 0.022725 48.7209C0.0346512 49.7273 0.12452 50.7313 0.291525 51.7238C0.456504 52.7182 0.772662 53.6815 1.22902 54.5802C1.68349 55.4775 2.28033 56.2953 2.99635 57.0017C3.70582 57.7172 4.52558 58.3142 5.42433 58.7697C6.322 59.2262 7.28317 59.5452 8.27565 59.7159C9.26958 59.8792 10.2743 59.9679 11.2815 59.9811C11.7451 59.9913 12.2007 59.9972 12.6599 59.9972C13.2085 60.0002 13.752 60.0002 14.302 60.0002H165.202C165.741 60.0002 166.289 60.0002 166.828 59.9972C167.285 59.9972 167.754 59.9913 168.211 59.9811C169.216 59.9686 170.219 59.8799 171.211 59.7159C172.207 59.544 173.171 59.2251 174.073 58.7697C174.971 58.3139 175.79 57.717 176.499 57.0017C177.213 56.2925 177.811 55.4754 178.271 54.5802C178.724 53.6808 179.038 52.7176 179.2 51.7238C179.367 50.7311 179.46 49.7274 179.479 48.7209C179.484 48.255 179.484 47.8038 179.484 47.3381C179.496 46.7931 179.496 46.2512 179.496 45.6974V14.3044C179.496 13.7551 179.496 13.2102 179.484 12.6667C179.484 12.2067 179.484 11.7453 179.479 11.2854C179.46 10.2788 179.367 9.27505 179.2 8.28236C179.037 7.28912 178.724 6.32645 178.271 5.42737C177.346 3.62299 175.877 2.15423 174.073 1.22767C173.171 0.773546 172.207 0.456556 171.211 0.287175C170.219 0.121849 169.216 0.0332066 168.211 0.022035C167.754 0.014715 167.285 0.005925 166.828 0.003C166.289 0 165.741 0.000195 165.202 0.000195Z" fill="#A6A6A6"/>
<path d="M12.6673 58.6875C12.2103 58.6875 11.7643 58.6816 11.3109 58.6714C10.3715 58.6592 9.43441 58.5774 8.50716 58.4268C7.64254 58.2779 6.80496 58.0009 6.02205 57.6049C5.24631 57.2123 4.53877 56.6974 3.92655 56.08C3.30546 55.47 2.78837 54.7624 2.39578 53.9853C1.99886 53.2032 1.72417 52.3648 1.58128 51.4995C1.42697 50.5697 1.34348 49.6295 1.33153 48.687C1.32202 48.3707 1.30957 47.3174 1.30957 47.3174V12.6665C1.30957 12.6665 1.32283 11.6294 1.33161 11.3247C1.34304 10.3837 1.42605 9.44498 1.5799 8.51659C1.72306 7.64888 1.99796 6.80812 2.39509 6.02344C2.78624 5.24692 3.30045 4.53879 3.9178 3.92652C4.53445 3.30843 5.24425 2.79091 6.02131 2.39281C6.80243 1.99814 7.63842 1.7231 8.50129 1.57691C9.43159 1.42475 10.372 1.34249 11.3146 1.33082L12.668 1.3125H166.821L168.191 1.33155C169.125 1.34265 170.056 1.42417 170.978 1.57543C171.85 1.72346 172.694 2.00042 173.484 2.39721C175.041 3.19948 176.308 4.46874 177.107 6.02711C177.498 6.80637 177.768 7.64026 177.91 8.50048C178.065 9.43649 178.153 10.3826 178.17 11.3313C178.175 11.7561 178.175 12.2124 178.175 12.6665C178.187 13.229 178.187 13.7644 178.187 14.3042V45.6972C178.187 46.2421 178.187 46.7739 178.175 47.31C178.175 47.7978 178.175 48.2446 178.169 48.7046C178.151 49.6363 178.066 50.5655 177.913 51.4848C177.773 52.3564 177.499 53.2013 177.103 53.9898C176.707 54.7584 176.193 55.4599 175.579 56.0683C174.966 56.689 174.258 57.2069 173.48 57.6021C172.692 58.0011 171.849 58.2791 170.978 58.4268C170.051 58.5782 169.114 58.66 168.174 58.6714C167.735 58.6816 167.275 58.6875 166.828 58.6875L165.202 58.6905L12.6673 58.6875Z" fill="black"/>
<path d="M37.1535 30.4505C37.1696 29.1985 37.5022 27.9709 38.1202 26.882C38.7382 25.7931 39.6217 24.8782 40.6883 24.2224C40.0107 23.2547 39.1168 22.4583 38.0776 21.8964C37.0383 21.3346 35.8824 21.0228 34.7016 20.9859C32.1827 20.7215 29.7408 22.4931 28.4572 22.4931C27.1488 22.4931 25.1726 21.0121 23.0445 21.0559C21.668 21.1004 20.3265 21.5007 19.1506 22.2178C17.9748 22.9348 17.0048 23.9443 16.3351 25.1477C13.4341 30.1704 15.598 37.5519 18.3769 41.6118C19.7673 43.5999 21.3922 45.8205 23.5184 45.7418C25.5989 45.6555 26.376 44.4151 28.8875 44.4151C31.3756 44.4151 32.1046 45.7418 34.274 45.6917C36.5065 45.6555 37.9131 43.6949 39.2547 41.688C40.2537 40.2715 41.0224 38.7059 41.5323 37.0492C40.2353 36.5007 39.1284 35.5824 38.3497 34.4089C37.571 33.2355 37.155 31.8588 37.1535 30.4505Z" fill="white"/>
<path d="M33.0559 18.316C34.2732 16.8547 34.8729 14.9764 34.7276 13.0801C32.8679 13.2754 31.15 14.1642 29.9163 15.5695C29.3131 16.256 28.8511 17.0546 28.5567 17.9198C28.2623 18.785 28.1414 19.6996 28.2007 20.6116C29.1309 20.6212 30.0512 20.4195 30.8922 20.0219C31.7332 19.6243 32.473 19.041 33.0559 18.316Z" fill="white"/>
<path d="M63.4536 40.7095H56.3535L54.6484 45.7442H51.6411L58.3662 27.1172H61.4907L68.2158 45.7442H65.1572L63.4536 40.7095ZM57.0889 38.3863H62.7169L59.9424 30.2154H59.8648L57.0889 38.3863Z" fill="white"/>
<path d="M82.7398 38.9552C82.7398 43.1754 80.481 45.8868 77.0723 45.8868C76.2088 45.932 75.3501 45.7331 74.5944 45.3128C73.8387 44.8926 73.2166 44.2681 72.7994 43.5108H72.7349V50.2374H69.9473V32.1641H72.6456V34.4229H72.6968C73.1333 33.6692 73.7658 33.0479 74.5273 32.6252C75.2887 32.2024 76.1506 31.994 77.021 32.022C80.4678 32.022 82.7398 34.7466 82.7398 38.9552ZM79.8746 38.9552C79.8746 36.2057 78.4536 34.398 76.2857 34.398C74.1558 34.398 72.7232 36.2437 72.7232 38.9552C72.7232 41.6915 74.1558 43.524 76.2857 43.524C78.4537 43.524 79.8746 41.7296 79.8746 38.9552Z" fill="white"/>
<path d="M97.687 38.9551C97.687 43.1754 95.4283 45.8868 92.0196 45.8868C91.1561 45.9319 90.2973 45.733 89.5417 45.3128C88.786 44.8926 88.1639 44.2681 87.7466 43.5108H87.6821V50.2373H84.8945V32.1641H87.5928V34.4229H87.644C88.0805 33.6692 88.7131 33.0479 89.4745 32.6252C90.236 32.2024 91.0978 31.994 91.9683 32.022C95.4151 32.022 97.687 34.7466 97.687 38.9551ZM94.8218 38.9551C94.8218 36.2056 93.4009 34.398 91.2329 34.398C89.1031 34.398 87.6704 36.2437 87.6704 38.9551C87.6704 41.6915 89.1031 43.524 91.2329 43.524C93.4009 43.524 94.8218 41.7296 94.8218 38.9551Z" fill="white"/>
<path d="M107.566 40.5543C107.773 42.4015 109.567 43.6143 112.019 43.6143C114.369 43.6143 116.059 42.4014 116.059 40.7359C116.059 39.29 115.04 38.4243 112.626 37.8311L110.211 37.2495C106.791 36.4233 105.203 34.8237 105.203 32.228C105.203 29.0142 108.004 26.8066 111.981 26.8066C115.917 26.8066 118.615 29.0142 118.706 32.228H115.892C115.724 30.3691 114.187 29.2471 111.941 29.2471C109.696 29.2471 108.159 30.3823 108.159 32.0347C108.159 33.3516 109.141 34.1265 111.542 34.7197L113.594 35.2236C117.416 36.1274 119.003 37.6626 119.003 40.3872C119.003 43.872 116.228 46.0546 111.812 46.0546C107.682 46.0546 104.893 43.9233 104.712 40.5541L107.566 40.5543Z" fill="white"/>
<path d="M125.02 28.9502V32.1641H127.602V34.3716H125.02V41.8584C125.02 43.0215 125.537 43.5635 126.672 43.5635C126.978 43.5581 127.285 43.5366 127.589 43.499V45.6933C127.078 45.7887 126.56 45.8319 126.041 45.8222C123.291 45.8222 122.219 44.7895 122.219 42.1557V34.3716H120.244V32.1641H122.219V28.9502H125.02Z" fill="white"/>
<path d="M129.098 38.9551C129.098 34.6821 131.614 31.9971 135.539 31.9971C139.476 31.9971 141.981 34.6821 141.981 38.9551C141.981 43.2398 139.489 45.9131 135.539 45.9131C131.589 45.9131 129.098 43.2397 129.098 38.9551ZM139.141 38.9551C139.141 36.0239 137.797 34.2939 135.539 34.2939C133.28 34.2939 131.938 36.0371 131.938 38.9551C131.938 41.8979 133.28 43.6148 135.539 43.6148C137.797 43.6148 139.141 41.8979 139.141 38.9551Z" fill="white"/>
<path d="M144.279 32.164H146.938V34.4755H147.003C147.182 33.7536 147.605 33.1156 148.2 32.6687C148.795 32.2219 149.526 31.9935 150.269 32.0219C150.59 32.0208 150.911 32.0557 151.224 32.1259V34.7333C150.819 34.6094 150.396 34.5525 149.972 34.5649C149.567 34.5484 149.163 34.6198 148.788 34.7742C148.413 34.9285 148.077 35.1621 147.801 35.4589C147.525 35.7558 147.316 36.1088 147.19 36.4938C147.063 36.8788 147.021 37.2867 147.067 37.6894V45.7446H144.279L144.279 32.164Z" fill="white"/>
<path d="M164.077 41.7559C163.702 44.2212 161.301 45.9131 158.229 45.9131C154.278 45.9131 151.826 43.2661 151.826 39.0195C151.826 34.7598 154.291 31.9971 158.112 31.9971C161.869 31.9971 164.232 34.5781 164.232 38.6958V39.6509H154.64V39.8193C154.596 40.3191 154.658 40.8226 154.824 41.2964C154.989 41.7702 155.253 42.2033 155.599 42.5671C155.944 42.931 156.363 43.2171 156.828 43.4066C157.292 43.596 157.792 43.6845 158.293 43.666C158.952 43.7277 159.613 43.5752 160.178 43.231C160.743 42.8868 161.182 42.3695 161.43 41.7558L164.077 41.7559ZM154.653 37.7026H161.443C161.468 37.2532 161.4 36.8035 161.243 36.3817C161.086 35.9599 160.843 35.5751 160.53 35.2514C160.218 34.9278 159.841 34.6723 159.425 34.501C159.009 34.3296 158.562 34.2462 158.112 34.2559C157.658 34.2532 157.208 34.3404 156.788 34.5125C156.368 34.6846 155.986 34.9382 155.664 35.2586C155.343 35.5791 155.088 35.9601 154.914 36.3795C154.741 36.799 154.652 37.2487 154.653 37.7026Z" fill="white"/>
<path d="M55.1074 16.8801H56.3042C56.5102 16.9057 56.7193 16.8884 56.9183 16.8293C57.1173 16.7701 57.3019 16.6704 57.4604 16.5363C57.619 16.4023 57.748 16.2368 57.8395 16.0505C57.9309 15.8641 57.9827 15.6607 57.9917 15.4533C57.9917 14.6279 57.3706 14.0947 56.3174 14.0947C56.1063 14.0652 55.8915 14.0783 55.6855 14.1332C55.4796 14.1881 55.2868 14.2837 55.1184 14.4144C54.9501 14.5451 54.8096 14.7082 54.7053 14.894C54.601 15.0799 54.535 15.2848 54.5112 15.4965H53.1972C53.2198 15.1121 53.3214 14.7364 53.4954 14.3929C53.6695 14.0494 53.9125 13.7454 54.2092 13.4998C54.5058 13.2543 54.8499 13.0724 55.2199 12.9656C55.5899 12.8588 55.9779 12.8292 56.3598 12.8789C58.122 12.8789 59.3628 13.8654 59.3628 15.2856C59.367 15.7614 59.2078 16.2242 58.9119 16.5967C58.6159 16.9693 58.2012 17.2291 57.7368 17.3327V17.4382C58.2873 17.4626 58.8058 17.704 59.1788 18.1095C59.5518 18.5151 59.7491 19.0519 59.7275 19.6025C59.6868 19.9983 59.5675 20.3821 59.3765 20.7312C59.1855 21.0803 58.9268 21.3878 58.6155 21.6356C58.3041 21.8834 57.9465 22.0666 57.5634 22.1744C57.1804 22.2822 56.7797 22.3125 56.3848 22.2634C55.989 22.3173 55.5865 22.2911 55.2012 22.1861C54.8158 22.0812 54.4556 21.8997 54.1418 21.6526C53.8281 21.4054 53.5674 21.0977 53.3751 20.7476C53.1829 20.3975 53.0631 20.0123 53.0229 19.615H54.3574C54.438 20.4712 55.2246 21.0235 56.3848 21.0235C57.5449 21.0235 58.3022 20.4031 58.3022 19.5286C58.3022 18.6416 57.5889 18.0952 56.3423 18.0952H55.1074V16.8801Z" fill="white"/>
<path d="M61.2437 20.1367C61.2437 18.9209 62.1504 18.22 63.7559 18.1203L65.5855 18.0149V17.4319C65.5855 16.7185 65.1152 16.3157 64.2026 16.3157C63.4585 16.3157 62.9443 16.5889 62.7949 17.0664H61.5044C61.6406 15.9062 62.7334 15.1621 64.2656 15.1621C65.959 15.1621 66.9141 16.0051 66.9141 17.4319V22.0469H65.6294V21.0977H65.5239C65.3099 21.4381 65.0093 21.7157 64.6528 21.902C64.2964 22.0883 63.8969 22.1767 63.4951 22.1582C63.2116 22.1876 62.925 22.1574 62.6538 22.0693C62.3827 21.9813 62.133 21.8374 61.9209 21.647C61.7088 21.4565 61.5389 21.2237 61.4223 20.9636C61.3056 20.7035 61.2448 20.4218 61.2437 20.1367ZM65.5855 19.5596V18.9949L63.936 19.1003C63.0058 19.1626 62.5839 19.479 62.5839 20.0744C62.5839 20.6823 63.1113 21.0361 63.8364 21.0361C64.0489 21.0576 64.2635 21.0362 64.4675 20.973C64.6715 20.9099 64.8608 20.8064 65.024 20.6686C65.1871 20.5309 65.321 20.3617 65.4174 20.1711C65.5139 19.9806 65.571 19.7726 65.5855 19.5596Z" fill="white"/>
<path d="M70.4517 16.4141V22.0464H69.1187V15.292H73.566V16.414L70.4517 16.4141Z" fill="white"/>
<path d="M81.6445 18.6667C81.6445 20.8127 80.5591 22.1581 78.854 22.1581C78.4355 22.1867 78.0174 22.0951 77.6492 21.8941C77.2809 21.6931 76.9778 21.3911 76.7754 21.0236H76.6699V24.2924H75.3369V15.2924H76.6201V16.4087H76.7197C76.9257 16.0283 77.2329 15.7123 77.6072 15.4956C77.9815 15.2788 78.4084 15.1698 78.8408 15.1804C80.5591 15.1804 81.6445 16.5199 81.6445 18.6667ZM80.2735 18.6667C80.2735 17.2399 79.5981 16.3779 78.4688 16.3779C77.3468 16.3779 76.645 17.2582 76.645 18.6725C76.645 20.0803 77.3467 20.9614 78.4629 20.9614C79.5981 20.9614 80.2735 20.0993 80.2735 18.6667Z" fill="white"/>
<path d="M83.42 24.4656V23.3179C83.5642 23.3362 83.7096 23.3445 83.855 23.3428C84.139 23.3638 84.4207 23.2792 84.6462 23.1053C84.8717 22.9313 85.025 22.6802 85.0766 22.4001L85.1763 22.0713L82.7314 15.292H84.1831L85.8765 20.657H85.982L87.6695 15.292H89.0831L86.565 22.3254C85.9879 23.969 85.3492 24.4964 83.9722 24.4964C83.8609 24.4963 83.5445 24.4839 83.42 24.4656Z" fill="white"/>
<path d="M90.1216 20.1298H91.4487C91.5791 20.7253 92.1372 21.0358 92.918 21.0358C93.8057 21.0358 94.3506 20.6447 94.3506 20.0368C94.3506 19.3857 93.8613 19.0751 92.918 19.0751H91.9072V18.0395H92.9004C93.7061 18.0395 94.1162 17.7297 94.1162 17.165C94.1162 16.6691 93.7192 16.2905 92.9004 16.2905C92.1548 16.2905 91.6099 16.6069 91.5234 17.1401H90.2388C90.3348 16.5274 90.6675 15.9769 91.1652 15.6069C91.663 15.237 92.286 15.0771 92.9004 15.1618C94.5059 15.1618 95.4243 15.8877 95.4243 17.0288C95.4318 17.3465 95.33 17.6572 95.1359 17.9089C94.9418 18.1606 94.6671 18.3381 94.3579 18.4116V18.5171C94.7261 18.5645 95.064 18.7455 95.3076 19.0257C95.5511 19.3058 95.6834 19.6656 95.6792 20.0368C95.6792 21.3208 94.5864 22.1704 92.918 22.1704C91.4429 22.1703 90.2446 21.4943 90.1216 20.1298Z" fill="white"/>
<path d="M97.5986 22.0464V15.292H98.9199V19.9378H99.0254L102.138 15.292H103.459V22.0464H102.138V17.3758H102.039L98.9199 22.0464L97.5986 22.0464Z" fill="white"/>
<path d="M110.738 16.414H108.611V22.0463H107.277V16.414H105.15V15.292H110.738V16.414Z" fill="white"/>
<path d="M117.919 20.2233C117.737 20.8405 117.345 21.3744 116.809 21.7316C116.274 22.0887 115.63 22.2465 114.991 22.1774C114.546 22.1891 114.103 22.1039 113.695 21.9276C113.286 21.7513 112.921 21.4882 112.624 21.1565C112.327 20.8247 112.106 20.4324 111.976 20.0067C111.846 19.5809 111.81 19.132 111.871 18.691C111.811 18.2487 111.848 17.7988 111.978 17.3718C112.107 16.9448 112.327 16.5506 112.623 16.216C112.918 15.8814 113.282 15.6142 113.689 15.4324C114.097 15.2505 114.539 15.1584 114.985 15.1622C116.864 15.1622 118 16.4462 118 18.5672V19.0324H113.23V19.1071C113.209 19.355 113.24 19.6046 113.321 19.8398C113.402 20.0751 113.531 20.2907 113.701 20.473C113.87 20.6552 114.076 20.8 114.305 20.898C114.533 20.996 114.78 21.0451 115.029 21.0421C115.347 21.0802 115.67 21.0227 115.956 20.8769C116.242 20.7311 116.478 20.5035 116.634 20.2232L117.919 20.2233ZM113.23 18.0465H116.64C116.657 17.8199 116.626 17.5923 116.55 17.3783C116.474 17.1643 116.353 16.9687 116.197 16.8039C116.04 16.6391 115.851 16.5089 115.642 16.4216C115.432 16.3342 115.206 16.2917 114.979 16.2968C114.748 16.2936 114.519 16.3367 114.306 16.4236C114.092 16.5104 113.898 16.6392 113.735 16.8023C113.572 16.9654 113.443 17.1596 113.357 17.3733C113.27 17.587 113.227 17.8159 113.23 18.0465Z" fill="white"/>
<path d="M123.57 15.292H126.616C127.937 15.292 128.712 15.9614 128.712 17.0095C128.714 17.3421 128.602 17.6652 128.394 17.9249C128.186 18.1847 127.896 18.3652 127.571 18.4362V18.5417C127.965 18.5666 128.335 18.7421 128.604 19.0319C128.873 19.3217 129.02 19.7036 129.015 20.0988C129.015 21.2773 128.129 22.0464 126.646 22.0464H123.57V15.292ZM124.892 16.3152V18.0642H126.213C127.019 18.0642 127.404 17.7544 127.404 17.1831C127.404 16.6565 127.068 16.3152 126.361 16.3152L124.892 16.3152ZM124.892 19.0442V21.0232H126.472C127.26 21.0232 127.682 20.6753 127.682 20.0366C127.682 19.3606 127.205 19.0442 126.305 19.0442L124.892 19.0442Z" fill="white"/>
</g>
<defs>
<clipPath id="clip0_3671_13362">
<rect width="179.496" height="60" fill="white"/>
</clipPath>
</defs>
</svg>
