<svg width="577" height="835" viewBox="0 0 577 835" fill="none" xmlns="http://www.w3.org/2000/svg">
<path opacity="0.5" fill-rule="evenodd" clip-rule="evenodd" d="M73.0134 810.835C65.956 791.891 49.8355 752.221 41.8123 745.09C40.9209 740.632 41.4409 732.089 41.8123 728.375C37.7265 726.146 29.5547 720.574 29.5547 716.117C25.0975 717.232 18.4115 712.774 16.1829 706.088C14.3999 700.74 16.9257 692.716 18.4115 689.373L5.03959 659.287C2.81094 653.715 -0.754897 641.68 2.81094 638.114C6.22486 634.7 3.75553 629.979 1.91173 626.454L1.9115 626.453L1.91141 626.453C1.34802 625.376 0.843078 624.411 0.582282 623.628C-0.532043 620.285 -0.532043 604.685 5.03958 604.685C9.49688 604.685 15.0685 609.885 17.2971 612.485C17.5446 611.619 17.9295 610.285 18.4197 608.587L18.428 608.558C22.3593 594.94 33.0221 558.002 34.012 550.083C35.1263 541.168 45.1552 497.71 48.4982 489.909C51.1726 483.669 77.8421 434.564 90.8425 410.792C88.6139 408.564 84.3795 403.215 85.2709 399.649C86.1624 396.083 88.6139 395.935 89.7282 396.306C89.7282 396.159 89.7088 395.954 89.6854 395.706C89.5312 394.074 89.2017 390.588 93.0712 389.621C91.9569 387.392 94.1855 379.592 98.6428 379.592C98.6428 377.363 100.871 376.249 103.1 376.249C103.1 376.133 103.097 375.954 103.093 375.717C103.02 371.392 102.623 347.753 114.243 336.133C126.501 323.875 134.301 316.075 151.016 313.846C167.731 311.618 187.789 297.132 188.903 284.874C189.795 275.068 187.789 257.016 186.674 249.216C184.074 244.015 178.874 233.392 178.874 232.501C178.874 232.243 177.917 231.566 176.447 230.526C171.57 227.077 161.045 219.632 161.045 210.214C161.045 200.408 163.274 196.471 164.388 195.728C160.674 183.47 158.148 155.612 177.76 142.24C202.275 125.526 225.676 126.64 236.819 131.097C247.962 135.555 264.677 152.271 261.334 168.986C258.964 180.837 259.955 183.725 260.732 185.991C261.051 186.921 261.334 187.747 261.334 189.044C261.334 193.501 255.763 238.074 247.962 245.874C240.922 252.915 241.144 263.586 241.254 268.876L241.254 268.877L241.254 268.881C241.266 269.45 241.276 269.956 241.276 270.389C241.276 274.847 244.619 288.219 255.763 287.104C262.652 286.415 275.929 275.505 286.907 266.484L286.907 266.484C293.685 260.914 299.586 256.065 302.564 254.789C310.364 251.446 315.936 244.76 315.936 242.531C315.936 241.895 314.756 240.896 313.148 239.534C309.12 236.123 302.404 230.436 304.793 222.473C308.136 211.33 320.393 207.984 323.736 210.214C326.411 211.998 329.308 218.388 330.422 221.359C338.594 213.187 355.829 194.17 359.395 183.472C362.961 172.775 384.653 113.641 395.053 85.4115C397.653 81.3256 402.853 70.2567 402.853 58.6677C402.853 51.5903 400.46 45.3109 398.271 39.5695C395.98 33.5592 393.913 28.1385 395.053 23.0093C397.282 12.9804 402.853 -5.96315 425.14 1.83712C447.426 9.6374 449.655 20.7804 440.74 38.6096C431.826 56.4388 429.597 89.8685 430.711 112.155C431.603 129.984 434.054 135.184 435.169 135.556C436.283 137.413 437.843 142.465 435.169 147.813C431.826 154.499 434.054 160.071 435.169 162.3C435.54 163.043 436.531 164.033 437.686 165.189C439.998 167.5 442.969 170.471 442.969 173.443C445.643 176.117 490.885 210.216 513.172 226.93C511.686 221.359 511.389 209.993 522.086 209.101C535.458 207.987 542.144 224.702 535.458 234.731C532.14 239.707 526.078 243.587 518.906 244.598L568.137 568.875C569.815 569.042 571.176 569.441 572.231 570.144C578.917 574.601 576.688 590.201 566.659 591.315C558.636 592.206 500.914 593.172 473.056 593.544C465.256 590.943 450.324 584.182 452.998 577.943C454.206 575.126 462.576 573.869 473.105 573.474L505.094 242.916C501.827 241.642 498.538 239.698 495.342 236.959C479.742 223.587 450.769 200.187 440.74 200.187C432.717 200.187 426.997 211.33 425.14 216.902C422.168 210.587 414.219 197.958 406.196 197.958C398.173 197.958 382.053 220.987 374.995 232.502L338.457 295.46L389.302 576.728L392.824 576.828C389.853 584.257 380.79 599.115 368.309 599.115C359.529 599.115 334.056 598.012 312.222 596.97C312.635 602.6 313.211 608.07 314.822 609.144C318.165 611.372 328.194 621.401 328.194 633.659V691.604C333.394 703.118 343.571 730.159 342.68 746.206C341.788 762.252 346.766 776.664 349.366 781.864C344.166 786.693 334.434 799.47 337.108 811.951C339.783 824.431 197.818 825.323 126.501 824.208L122.044 777.407C129.472 764.035 144.553 733.948 145.444 720.576C146.099 710.754 140.983 683.618 136.651 660.646L136.651 660.646C133.611 644.524 130.958 630.454 130.958 625.859C130.958 614.715 130.958 571.257 134.301 565.685C136.976 561.228 139.13 559.371 139.873 558.999V542.284L154.359 527.798H156.588L157.702 523.341L161.045 521.112C161.788 515.169 163.942 503.283 166.617 503.283C169.291 503.283 167.731 476.539 166.617 463.167L163.274 460.939V446.452L134.301 417.48C120.929 436.052 93.7398 474.088 91.9569 477.653C91.1272 479.313 89.6799 480.972 88.1322 482.746L88.132 482.747C85.5223 485.738 82.6274 489.057 81.9279 493.254C80.8136 499.94 74.1277 533.366 67.4417 550.083C60.7558 566.799 37.355 628.087 38.4693 634.773C39.3607 640.122 44.7838 654.088 47.3839 660.403L50.7269 662.631L52.9555 710.547L56.2985 720.576L64.0988 728.375L101.986 834.237L73.0134 810.835ZM381.287 576.499L332.915 308.912L321.31 574.785L381.287 576.499ZM313.465 574.561L313.857 565.588C312.969 568.667 312.096 571.764 311.41 574.502L313.465 574.561ZM314.886 542.002L323.741 339.148L303.496 528.362C303.979 529.081 304.417 529.651 304.793 530.027C306.898 532.131 311.653 537.328 314.886 542.002ZM296.925 516.022L316.47 333.345L302.564 357.306C297.735 387.765 288.747 452.247 291.421 466.51C294.095 480.774 294.021 500.683 293.65 508.855C294.479 510.75 295.64 513.317 296.925 516.022ZM481.002 573.328C484.525 573.322 488.142 573.383 491.699 573.491L503.775 338.01L481.002 573.328ZM499.54 573.804C504.169 574.03 508.472 574.314 512.057 574.601C528.239 574.079 540.998 572.09 550.677 570.581C554.291 570.018 557.475 569.521 560.248 569.193L515.046 271.446L499.54 573.804Z" fill="url(#paint0_linear_3671_13408)"/>
<defs>
<linearGradient id="paint0_linear_3671_13408" x1="288.026" y1="60.1735" x2="288.026" y2="834.237" gradientUnits="userSpaceOnUse">
<stop offset="0.323263" stop-color="#2A323C"/>
<stop offset="1" stop-color="#191E23" stop-opacity="0"/>
</linearGradient>
</defs>
</svg>
