<svg width="203" height="60" viewBox="0 0 203 60" fill="none" xmlns="http://www.w3.org/2000/svg">
<g clip-path="url(#clip0_3672_14077)">
<mask id="mask0_3672_14077" style="mask-type:luminance" maskUnits="userSpaceOnUse" x="0" y="0" width="203" height="60">
<path d="M202.497 0H0V60H202.497V0Z" fill="white"/>
</mask>
<g mask="url(#mask0_3672_14077)">
<mask id="mask1_3672_14077" style="mask-type:luminance" maskUnits="userSpaceOnUse" x="0" y="0" width="203" height="60">
<path d="M202.497 0H0V60H202.497V0Z" fill="white"/>
</mask>
<g mask="url(#mask1_3672_14077)">
<path d="M194.996 60H7.50118C3.376 60 0 56.624 0 52.4988V7.50118C0 3.376 3.376 0 7.50118 0H194.996C199.121 0 202.497 3.376 202.497 7.50118V52.4988C202.497 56.624 199.121 60 194.996 60Z" fill="black"/>
<path d="M194.996 1.20056C198.469 1.20056 201.297 4.028 201.297 7.50118V52.4988C201.297 55.972 198.469 58.7994 194.996 58.7994H7.50118C4.028 58.7994 1.20056 55.972 1.20056 52.4988V7.50118C1.20056 4.02487 4.02487 1.20056 7.50118 1.20056H194.996ZM194.996 0H7.50118C3.376 0 0 3.376 0 7.50118V52.4988C0 56.624 3.376 60 7.50118 60H194.996C199.121 60 202.497 56.624 202.497 52.4988V7.50118C202.497 3.376 199.121 0 194.996 0Z" fill="#A6A5A5"/>
<path d="M102.202 32.6244C98.6751 32.6244 95.7975 35.3077 95.7975 39.0065C95.7975 42.7054 98.672 45.3855 102.202 45.3855C105.731 45.3855 108.606 42.6772 108.606 39.0065C108.606 35.3359 105.731 32.6244 102.202 32.6244ZM102.202 42.8715C100.267 42.8715 98.5998 41.276 98.5998 39.0065C98.5998 36.7371 100.267 35.1384 102.202 35.1384C104.136 35.1384 105.8 36.7088 105.8 39.0065C105.8 41.3042 104.132 42.8715 102.202 42.8715ZM88.2305 32.6244C84.704 32.6244 81.8264 35.3077 81.8264 39.0065C81.8264 42.7054 84.7009 45.3855 88.2305 45.3855C91.7601 45.3855 94.6345 42.6772 94.6345 39.0065C94.6345 35.3359 91.757 32.6244 88.2305 32.6244ZM88.2305 42.8715C86.2996 42.8715 84.6319 41.276 84.6319 39.0065C84.6319 36.7371 86.2996 35.1384 88.2305 35.1384C90.1614 35.1384 91.8322 36.7088 91.8322 39.0065C91.8322 41.3042 90.1646 42.8715 88.2305 42.8715ZM71.6138 34.5836V37.2887H78.09C77.8956 38.8122 77.3909 39.9218 76.6167 40.6961C75.6732 41.6396 74.1999 42.6772 71.6138 42.6772C67.6266 42.6772 64.5076 39.4642 64.5076 35.4769C64.5076 31.4897 67.6234 28.2767 71.6138 28.2767C73.7642 28.2767 75.3346 29.1199 76.4944 30.2076L78.4034 28.2986C76.7828 26.7533 74.6325 25.5684 71.6138 25.5684C66.1533 25.5684 61.561 30.0164 61.561 35.4769C61.561 40.9375 66.1533 45.3855 71.6138 45.3855C74.5604 45.3855 76.7828 44.4169 78.5257 42.6051C80.3124 40.8183 80.8704 38.3044 80.8704 36.2731C80.8704 35.6462 80.8234 35.0663 80.7262 34.5836H71.6169H71.6138ZM139.576 36.6838C139.043 35.2575 137.425 32.6244 134.115 32.6244C130.805 32.6244 128.1 35.2105 128.1 39.0065C128.1 42.5831 130.805 45.3855 134.429 45.3855C137.353 45.3855 139.043 43.5988 139.745 42.5581L137.57 41.1067C136.842 42.1694 135.855 42.8715 134.429 42.8715C133.002 42.8715 131.987 42.2195 131.335 40.9406L139.864 37.411L139.576 36.6869V36.6838ZM130.877 38.8122C130.805 36.3452 132.786 35.0914 134.212 35.0914C135.325 35.0914 136.269 35.6462 136.582 36.4455L130.88 38.8153L130.877 38.8122ZM123.94 44.9968H126.743V26.2454H123.94V44.9968ZM119.348 34.0507H119.251C118.624 33.3015 117.414 32.6244 115.894 32.6244C112.703 32.6244 109.781 35.4268 109.781 39.0285C109.781 42.6302 112.706 45.3824 115.894 45.3824C117.417 45.3824 118.624 44.7053 119.251 43.931H119.348V44.8495C119.348 47.2914 118.044 48.5954 115.941 48.5954C114.226 48.5954 113.16 47.3635 112.728 46.3259L110.286 47.3415C110.985 49.0342 112.847 51.1125 115.941 51.1125C119.226 51.1125 122.006 49.1784 122.006 44.4671V33.0131H119.348V34.0538V34.0507ZM116.135 42.8715C114.201 42.8715 112.583 41.2541 112.583 39.0316C112.583 36.8091 114.201 35.1415 116.135 35.1415C118.069 35.1415 119.542 36.7841 119.542 39.0316C119.542 41.2791 118.044 42.8715 116.135 42.8715ZM152.707 26.2486H146.002V44.9999H148.798V37.8969H152.707C155.81 37.8969 158.857 35.6493 158.857 32.0727C158.857 28.4961 155.807 26.2486 152.707 26.2486ZM152.779 35.2857H148.798V28.8566H152.779C154.873 28.8566 156.061 30.59 156.061 32.0696C156.061 33.5491 154.873 35.2826 152.779 35.2826M170.076 32.5899C168.051 32.5899 165.951 33.4833 165.082 35.4581L167.568 36.4957C168.098 35.4581 169.088 35.1196 170.126 35.1196C171.574 35.1196 173.044 35.9879 173.069 37.5301V37.7245C172.562 37.4361 171.477 37.0004 170.151 37.0004C167.474 37.0004 164.747 38.4705 164.747 41.2227C164.747 43.7336 166.944 45.3479 169.402 45.3479C171.286 45.3479 172.32 44.5047 172.972 43.5141H173.069V44.9623H175.771V37.7715C175.771 34.4425 173.289 32.5868 170.079 32.5868M169.74 42.8621C168.822 42.8621 167.543 42.4045 167.543 41.2697C167.543 39.8215 169.135 39.2698 170.511 39.2698C171.74 39.2698 172.32 39.5363 173.069 39.8968C172.853 41.6334 171.358 42.8653 169.74 42.8653M185.614 32.9974L182.404 41.1287H182.307L178.978 32.9974H175.963L180.956 44.3605L178.11 50.6799H181.028L188.724 32.9974H185.611H185.614ZM160.405 44.9937H163.205V26.2423H160.405V44.9937Z" fill="white"/>
<path d="M31.0769 29.1359L15.106 46.0849C15.106 46.0849 15.106 46.0912 15.106 46.0943C15.595 47.9343 17.2751 49.2885 19.2719 49.2885C20.0712 49.2885 20.8173 49.0722 21.4599 48.6961L21.51 48.6647L39.4871 38.2922L31.0738 29.1328L31.0769 29.1359Z" fill="#EA4435"/>
<path d="M47.2324 26.2498L47.2167 26.2404L39.4554 21.7422L30.7129 29.5223L39.4867 38.293L47.2042 33.8387C48.5583 33.1052 49.4768 31.679 49.4768 30.0364C49.4768 28.3939 48.5709 26.9833 47.2293 26.2498" fill="#F9BC15"/>
<path d="M15.1058 13.9141C15.0086 14.2683 14.9585 14.6413 14.9585 15.0237V44.9751C14.9585 45.3607 15.0086 45.7306 15.1058 46.0848L31.6222 29.5684L15.1058 13.9141Z" fill="#547DBF"/>
<path d="M31.1929 30.0015L39.4589 21.7386L21.5037 11.3285C20.8517 10.9366 20.09 10.7109 19.275 10.7109C17.2814 10.7109 15.5981 12.0682 15.106 13.9114C15.106 13.9114 15.106 13.9114 15.106 13.9145L31.196 30.0015H31.1929Z" fill="#33A851"/>
</g>
<path d="M64.6014 19.2683C63.8585 18.842 63.2723 18.2558 62.846 17.5066C62.4197 16.7574 62.2065 15.933 62.2065 15.0271C62.2065 14.1212 62.4197 13.2968 62.846 12.5476C63.2723 11.7984 63.8585 11.2123 64.6014 10.7859C65.3443 10.3596 66.1687 10.1465 67.0746 10.1465C68.4758 10.1465 69.6294 10.6543 70.5321 11.6731L69.529 12.6511C69.2062 12.2686 68.8488 11.9802 68.4539 11.789C68.0589 11.5978 67.6044 11.5006 67.0903 11.5006C66.454 11.5006 65.8772 11.6448 65.3537 11.9364C64.8334 12.2279 64.4196 12.6417 64.1124 13.1777C63.8083 13.7137 63.6547 14.3281 63.6547 15.024C63.6547 15.7199 63.8083 16.3342 64.1124 16.8703C64.4165 17.4063 64.8302 17.8201 65.3537 18.1085C65.8741 18.4 66.454 18.5473 67.0903 18.5473C68.1529 18.5473 69.0432 18.1084 69.7641 17.2276L70.7954 18.2182C70.3441 18.7479 69.7986 19.1617 69.1654 19.4595C68.5291 19.7541 67.8332 19.9046 67.0778 19.9046C66.1719 19.9046 65.3474 19.6914 64.6045 19.2651L64.6014 19.2683Z" fill="white"/>
<path d="M72.3975 10.3567H73.8331V14.8862H73.9115L77.6323 10.3567H79.4347V10.435L75.4945 15.1056L79.6447 19.6195V19.6979H77.7639L73.9146 15.4159H73.8363V19.6979H72.4006V10.3535L72.3975 10.3567Z" fill="white"/>
<path d="M84.0643 10.3555H85.6943L89.2301 19.6998H87.6503L86.7883 17.2987H82.9765L82.1145 19.6998H80.5347L84.058 10.3555H84.0643ZM86.3212 15.9665L85.2774 13.1014L84.9263 12.0325H84.8479L84.4968 13.1014L83.453 15.9665H86.3243H86.3212Z" fill="white"/>
<path d="M94.6343 15.5386C94.0512 16.0526 93.3334 16.3097 92.4808 16.3097C91.9166 16.3097 91.4056 16.1937 90.948 15.9649C90.4903 15.736 90.133 15.4006 89.8728 14.9681C89.6126 14.5323 89.481 14.0214 89.481 13.429V10.3633H90.9292V13.1813C90.9292 13.7455 91.0953 14.1844 91.4244 14.4916C91.7536 14.8019 92.1987 14.9555 92.7567 14.9555C93.5121 14.9555 94.139 14.6609 94.6374 14.0684V10.3633H96.0606V19.7076H94.6374V15.5448L94.6343 15.5386Z" fill="white"/>
<path d="M100.844 10.3555H102.474L106.01 19.6998H104.43L103.568 17.2987H99.7563L98.8943 19.6998H97.3145L100.838 10.3555H100.844ZM103.101 15.9665L102.057 13.1014L101.706 12.0325H101.628L101.277 13.1014L100.233 15.9665H103.104H103.101Z" fill="white"/>
<path d="M108.439 11.7128H105.815V10.3555H112.483V11.7128H109.872V19.6998H108.436V11.7128H108.439Z" fill="white"/>
<path d="M113.972 10.3555H115.407V13.6844H117.392C117.975 13.6844 118.514 13.8036 119.009 14.0449C119.504 14.2832 119.899 14.6311 120.197 15.0888C120.492 15.5464 120.639 16.0793 120.639 16.6874C120.639 17.2955 120.492 17.8284 120.197 18.2861C119.902 18.7437 119.504 19.0917 119.009 19.3362C118.514 19.5807 117.975 19.7029 117.392 19.7029H113.972V10.3586V10.3555ZM117.495 18.3551C117.834 18.3551 118.134 18.2767 118.395 18.12C118.655 17.9632 118.855 17.7563 118.993 17.4993C119.131 17.2423 119.203 16.9695 119.203 16.6843C119.203 16.399 119.134 16.1263 118.993 15.8693C118.855 15.6122 118.655 15.4054 118.395 15.2424C118.134 15.0825 117.834 15.001 117.495 15.001H115.407V18.3551H117.495Z" fill="white"/>
<path d="M125.263 10.3555H126.686V15.5245L126.608 17.3269H126.686L130.874 10.3586H132.504V19.7029H131.081V14.4054L131.159 12.603H131.081L126.827 19.7029H125.26V10.3586L125.263 10.3555Z" fill="white"/>
<path d="M135.316 19.3087C134.73 18.9074 134.325 18.3181 134.109 17.5345L135.425 17.011C135.538 17.4968 135.758 17.8824 136.084 18.1582C136.41 18.4372 136.795 18.5751 137.237 18.5751C137.717 18.5751 138.124 18.4247 138.463 18.1238C138.801 17.8228 138.971 17.453 138.971 17.0078C138.971 16.7194 138.889 16.4593 138.723 16.2179C138.557 15.9797 138.331 15.7885 138.046 15.6505C137.758 15.5126 137.447 15.4405 137.106 15.4405H136.334V14.1867H137.027C137.497 14.1867 137.889 14.0581 138.203 13.8011C138.516 13.5441 138.673 13.1993 138.673 12.7635C138.673 12.3811 138.529 12.0645 138.237 11.8106C137.946 11.5598 137.582 11.4313 137.146 11.4313C136.755 11.4313 136.425 11.5504 136.156 11.7824C135.886 12.0175 135.698 12.2965 135.595 12.6162L134.328 12.0927C134.51 11.5787 134.842 11.1241 135.328 10.7292C135.811 10.3342 136.422 10.1367 137.162 10.1367C137.726 10.1367 138.231 10.2464 138.67 10.469C139.109 10.6915 139.453 10.9956 139.701 11.3812C139.949 11.7699 140.074 12.2056 140.074 12.6914C140.074 13.5974 139.679 14.265 138.886 14.7007V14.7791C139.331 14.9797 139.692 15.2712 139.971 15.6537C140.25 16.0361 140.388 16.5032 140.388 17.0517C140.388 17.6003 140.25 18.0642 139.977 18.4999C139.704 18.9356 139.325 19.2773 138.848 19.5249C138.369 19.7726 137.836 19.898 137.244 19.898C136.548 19.898 135.905 19.6973 135.319 19.2961L135.316 19.3087Z" fill="white"/>
</g>
</g>
<defs>
<clipPath id="clip0_3672_14077">
<rect width="202.497" height="60" fill="white"/>
</clipPath>
</defs>
</svg>
